<svg width="21" height="21" viewBox="0 0 21 21" fill="none" xmlns="http://www.w3.org/2000/svg">
<mask id="path-1-inside-1_32_55" fill="white">
<path d="M14.6016 2.625C12.9076 2.625 11.4245 3.35344 10.5 4.58473C9.57551 3.35344 8.09238 2.625 6.39844 2.625C5.05003 2.62652 3.75728 3.16285 2.80382 4.11632C1.85035 5.06978 1.31402 6.36253 1.3125 7.71094C1.3125 13.4531 9.82652 18.101 10.1891 18.293C10.2847 18.3444 10.3915 18.3713 10.5 18.3713C10.6085 18.3713 10.7153 18.3444 10.8109 18.293C11.1735 18.101 19.6875 13.4531 19.6875 7.71094C19.686 6.36253 19.1497 5.06978 18.1962 4.11632C17.2427 3.16285 15.95 2.62652 14.6016 2.625ZM10.5 16.9641C9.00211 16.0912 2.625 12.1152 2.625 7.71094C2.6263 6.71056 3.02428 5.75153 3.73165 5.04415C4.43903 4.33678 5.39806 3.9388 6.39844 3.9375C7.99395 3.9375 9.33352 4.78734 9.89297 6.15234C9.94241 6.27271 10.0265 6.37565 10.1346 6.44811C10.2427 6.52056 10.3699 6.55924 10.5 6.55924C10.6301 6.55924 10.7573 6.52056 10.8654 6.44811C10.9735 6.37565 11.0576 6.27271 11.107 6.15234C11.6665 4.78488 13.0061 3.9375 14.6016 3.9375C15.6019 3.9388 16.561 4.33678 17.2683 5.04415C17.9757 5.75153 18.3737 6.71056 18.375 7.71094C18.375 12.1086 11.9963 16.0904 10.5 16.9641Z"/>
</mask>
<path d="M14.6016 2.625C12.9076 2.625 11.4245 3.35344 10.5 4.58473C9.57551 3.35344 8.09238 2.625 6.39844 2.625C5.05003 2.62652 3.75728 3.16285 2.80382 4.11632C1.85035 5.06978 1.31402 6.36253 1.3125 7.71094C1.3125 13.4531 9.82652 18.101 10.1891 18.293C10.2847 18.3444 10.3915 18.3713 10.5 18.3713C10.6085 18.3713 10.7153 18.3444 10.8109 18.293C11.1735 18.101 19.6875 13.4531 19.6875 7.71094C19.686 6.36253 19.1497 5.06978 18.1962 4.11632C17.2427 3.16285 15.95 2.62652 14.6016 2.625ZM10.5 16.9641C9.00211 16.0912 2.625 12.1152 2.625 7.71094C2.6263 6.71056 3.02428 5.75153 3.73165 5.04415C4.43903 4.33678 5.39806 3.9388 6.39844 3.9375C7.99395 3.9375 9.33352 4.78734 9.89297 6.15234C9.94241 6.27271 10.0265 6.37565 10.1346 6.44811C10.2427 6.52056 10.3699 6.55924 10.5 6.55924C10.6301 6.55924 10.7573 6.52056 10.8654 6.44811C10.9735 6.37565 11.0576 6.27271 11.107 6.15234C11.6665 4.78488 13.0061 3.9375 14.6016 3.9375C15.6019 3.9388 16.561 4.33678 17.2683 5.04415C17.9757 5.75153 18.3737 6.71056 18.375 7.71094C18.375 12.1086 11.9963 16.0904 10.5 16.9641Z" fill="white"/>
<path d="M14.6016 2.625L14.6128 -7.375H14.6016V2.625ZM10.5 4.58473L2.5032 10.589L10.5 21.2396L18.4968 10.589L10.5 4.58473ZM6.39844 2.625V-7.37501L6.38717 -7.37499L6.39844 2.625ZM1.3125 7.71094L-8.6875 7.69967V7.71094H1.3125ZM10.1891 18.293L14.9266 9.48637L14.8973 9.47063L14.868 9.45509L10.1891 18.293ZM10.8109 18.293L6.13202 9.45509L6.10266 9.47063L6.0734 9.48637L10.8109 18.293ZM19.6875 7.71094H29.6875L29.6875 7.69967L19.6875 7.71094ZM10.5 16.9641L5.46541 25.6043L10.5051 28.5409L15.5422 25.5998L10.5 16.9641ZM2.625 7.71094L-7.375 7.69792V7.71094H2.625ZM6.39844 3.9375V-6.06251L6.38542 -6.06249L6.39844 3.9375ZM9.89297 6.15234L0.639979 9.94474L0.642969 9.95201L9.89297 6.15234ZM10.5 6.55924V-3.44076V6.55924ZM11.107 6.15234L20.357 9.95201L20.3597 9.94545L20.3624 9.93889L11.107 6.15234ZM14.6016 3.9375L14.6146 -6.0625H14.6016V3.9375ZM18.375 7.71094H28.375L28.375 7.69792L18.375 7.71094ZM14.6016 -7.375C9.98529 -7.375 5.44666 -5.3398 2.5032 -1.41954L18.4968 10.589C17.4023 12.0467 15.8299 12.625 14.6016 12.625V-7.375ZM18.4968 -1.41954C15.5533 -5.3398 11.0147 -7.375 6.39844 -7.375V12.625C5.17005 12.625 3.59768 12.0467 2.5032 10.589L18.4968 -1.41954ZM6.38717 -7.37499C2.3905 -7.37049 -1.44118 -5.78082 -4.26725 -2.95475L9.87488 11.1874C8.95575 12.1065 7.70956 12.6235 6.40971 12.625L6.38717 -7.37499ZM-4.26725 -2.95475C-7.09332 -0.128682 -8.68299 3.703 -8.68749 7.69967L11.3125 7.72221C11.311 9.02206 10.794 10.2683 9.87488 11.1874L-4.26725 -2.95475ZM-8.6875 7.71094C-8.6875 15.2614 -3.43885 20.4471 -0.973427 22.6062C2.01935 25.2272 4.99075 26.8558 5.51022 27.1308L14.868 9.45509C15.018 9.5345 14.6785 9.35859 14.1025 8.98381C13.5256 8.60854 12.835 8.11375 12.2031 7.56034C11.5366 6.97661 11.1834 6.5432 11.052 6.3394C10.9194 6.13385 11.3125 6.63797 11.3125 7.71094H-8.6875ZM5.4516 27.0996C7.00337 27.9343 8.73793 28.3713 10.5 28.3713V8.37128C12.045 8.37128 13.566 8.75442 14.9266 9.48637L5.4516 27.0996ZM10.5 28.3713C12.2621 28.3713 13.9966 27.9343 15.5484 27.0996L6.0734 9.48637C7.43403 8.75442 8.95495 8.37128 10.5 8.37128V28.3713ZM15.4898 27.1308C16.0092 26.8558 18.9806 25.2272 21.9734 22.6062C24.4389 20.4471 29.6875 15.2614 29.6875 7.71094H9.6875C9.6875 6.63797 10.0806 6.13385 9.94804 6.3394C9.81658 6.5432 9.46345 6.97661 8.79691 7.56034C8.16498 8.11375 7.47438 8.60854 6.89755 8.98381C6.32148 9.35859 5.98201 9.5345 6.13202 9.45509L15.4898 27.1308ZM29.6875 7.69967C29.683 3.703 28.0933 -0.128681 25.2673 -2.95475L11.1251 11.1874C10.206 10.2682 9.68897 9.02206 9.68751 7.72221L29.6875 7.69967ZM25.2673 -2.95475C22.4412 -5.78082 18.6095 -7.37049 14.6128 -7.37499L14.5903 12.625C13.2904 12.6235 12.0443 12.1065 11.1251 11.1874L25.2673 -2.95475ZM15.5346 8.32387C15.3377 8.20912 14.8971 7.94338 14.3611 7.56929C13.8133 7.18694 13.2635 6.7592 12.8039 6.33259C12.3127 5.87657 12.1459 5.62593 12.1526 5.63672C12.1527 5.6369 12.625 6.38083 12.625 7.71094H-7.375C-7.375 14.4178 -2.86696 19.0746 -0.802361 20.991C1.76295 23.3722 4.45369 25.0147 5.46541 25.6043L15.5346 8.32387ZM12.625 7.72396C12.6228 9.37123 11.9675 10.9504 10.8027 12.1152L-3.33941 -2.02692C-5.91896 0.552633 -7.37024 4.04989 -7.37499 7.69792L12.625 7.72396ZM10.8027 12.1152C9.63792 13.28 8.05873 13.9353 6.41146 13.9375L6.38542 -6.06249C2.73739 -6.05774 -0.759866 -4.60646 -3.33941 -2.02692L10.8027 12.1152ZM6.39844 13.9375C4.35935 13.9375 1.77411 12.7119 0.639981 9.94473L19.146 2.35995C16.8929 -3.13719 11.6285 -6.0625 6.39844 -6.0625V13.9375ZM0.642969 9.95201C1.44582 11.9065 2.81157 13.5782 4.56669 14.7546L15.7025 -1.85842C17.2415 -0.826854 18.439 0.638928 19.143 2.35267L0.642969 9.95201ZM4.56669 14.7546C6.32181 15.9311 8.38705 16.5592 10.5 16.5592V-3.44076C12.3527 -3.44076 14.1636 -2.88998 15.7025 -1.85842L4.56669 14.7546ZM10.5 16.5592C12.6129 16.5592 14.6782 15.9311 16.4333 14.7546L5.29748 -1.85842C6.83642 -2.88998 8.6473 -3.44076 10.5 -3.44076V16.5592ZM16.4333 14.7546C18.1884 13.5781 19.5542 11.9065 20.357 9.95201L1.85703 2.35267C2.56098 0.638953 3.75851 -0.82684 5.29748 -1.85842L16.4333 14.7546ZM20.3624 9.93889C19.226 12.7166 16.6315 13.9375 14.6016 13.9375V-6.0625C9.38057 -6.0625 4.10695 -3.14679 1.85165 2.3658L20.3624 9.93889ZM14.5885 13.9375C12.9413 13.9353 11.3621 13.28 10.1973 12.1152L24.3394 -2.02692C21.7599 -4.60647 18.2626 -6.05774 14.6146 -6.06249L14.5885 13.9375ZM10.1973 12.1152C9.03248 10.9504 8.37715 9.37123 8.37501 7.72396L28.375 7.69792C28.3702 4.04989 26.919 0.552636 24.3394 -2.02692L10.1973 12.1152ZM8.375 7.71094C8.375 7.04091 8.49769 6.51309 8.61217 6.17C8.72302 5.83781 8.83256 5.65754 8.84856 5.63164C8.85461 5.62186 8.68679 5.8736 8.19428 6.33091C7.73356 6.75869 7.18271 7.18756 6.63409 7.5709C6.09737 7.94592 5.65592 8.21263 5.45776 8.32833L15.5422 25.5998C16.5505 25.0111 19.2393 23.3675 21.8029 20.9871C23.8626 19.0747 28.375 14.4171 28.375 7.71094H8.375Z" fill="white" mask="url(#path-1-inside-1_32_55)"/>
<rect x="2.625" y="3.9375" width="7.875" height="6.5625" rx="3.28125" fill="white"/>
<rect x="2.625" y="5.25" width="7.875" height="6.5625" rx="3.28125" fill="white"/>
<path d="M2.625 7.4375C2.625 6.22938 3.60438 5.25 4.8125 5.25H5.90625C7.71843 5.25 9.1875 6.71907 9.1875 8.53125C9.1875 10.3434 7.71843 11.8125 5.90625 11.8125C4.09407 11.8125 2.625 10.3434 2.625 8.53125V7.4375Z" fill="white"/>
<path d="M17.216 5.16864C18.4197 5.06554 19.4791 5.95777 19.5822 7.16148C19.7884 9.56892 18.0039 11.6877 15.5965 11.8939C14.3928 11.997 13.3334 11.1047 13.2303 9.90102C13.0241 7.49359 14.8086 5.37483 17.216 5.16864Z" fill="white"/>
<path d="M16.1716 5.43667C17.3753 5.33358 18.4347 6.2258 18.5377 7.42952C18.7439 9.83695 16.9595 11.9557 14.5521 12.1619C13.3483 12.265 12.289 11.3728 12.1859 10.1691C11.9797 7.76163 13.7641 5.64287 16.1716 5.43667Z" fill="white"/>
<path d="M6.98405 5.43667C8.18777 5.33358 9.24715 6.2258 9.35025 7.42952C9.55644 9.83695 7.77198 11.9557 5.36455 12.1619C4.16084 12.265 3.10146 11.3728 2.99836 10.1691C2.79217 7.76163 4.57662 5.64287 6.98405 5.43667Z" fill="white"/>
<path d="M14.8591 8.06167C16.0628 7.95858 17.1222 8.8508 17.2252 10.0545C17.4314 12.462 15.647 14.5807 13.2396 14.7869C12.0358 14.89 10.9765 13.9978 10.8734 12.7941C10.6672 10.3866 12.4516 8.26787 14.8591 8.06167Z" fill="white"/>
<path d="M9.60905 8.06167C10.8128 7.95858 11.8722 8.8508 11.9752 10.0545C12.1814 12.462 10.397 14.5807 7.98955 14.7869C6.78584 14.89 5.72646 13.9978 5.62336 12.7941C5.41717 10.3866 7.20162 8.26787 9.60905 8.06167Z" fill="white"/>
<path d="M10.9216 9.37417C12.1253 9.27108 13.1847 10.1633 13.2877 11.367C13.4939 13.7745 11.7095 15.8932 9.30205 16.0994C8.09834 16.2025 7.03896 15.3103 6.93586 14.1066C6.72967 11.6991 8.51412 9.58037 10.9216 9.37417Z" fill="white"/>
<path d="M12.2341 10.6867C13.4378 10.5836 14.4972 11.4758 14.6002 12.6795C14.8064 15.087 13.022 17.2057 10.6146 17.4119C9.41084 17.515 8.35146 16.6228 8.24836 15.4191C8.04217 13.0116 9.82662 10.8929 12.2341 10.6867Z" fill="white"/>
<rect x="3.9375" y="6.5625" width="7.875" height="6.5625" rx="3.28125" fill="white"/>
<rect x="3.9375" y="7.875" width="7.875" height="6.5625" rx="3.28125" fill="white"/>
<rect x="9.1875" y="5.25" width="7.875" height="6.5625" rx="3.28125" fill="white"/>
<rect x="10.5" y="3.9375" width="7.875" height="6.5625" rx="3.28125" fill="white"/>
</svg>
