<svg width="20" height="18" viewBox="0 0 20 18" fill="none" xmlns="http://www.w3.org/2000/svg">
<g id="&#240;&#159;&#166;&#134; icon &#34;media play&#34;">
<path id="Vector" d="M18.6804 7.96193L1.94498 0.142122C1.74964 0.0508487 1.52697 0.00182861 1.29965 5.01763e-05C1.07233 -0.00172826 0.848465 0.0437983 0.650837 0.131997C0.45321 0.220196 0.288874 0.347919 0.174553 0.50217C0.0602308 0.65642 3.73086e-06 0.831691 0 1.01015V16.337C0.00026538 16.5138 0.059634 16.6875 0.172177 16.8407C0.28472 16.9939 0.446498 17.1213 0.641355 17.2101C0.836212 17.2988 1.05733 17.3459 1.28262 17.3466C1.50792 17.3473 1.7295 17.3016 1.92525 17.2141L18.6606 9.70716C18.8559 9.61956 19.0185 9.4933 19.1322 9.34099C19.246 9.18867 19.3069 9.0156 19.3089 8.83905C19.3109 8.66249 19.2539 8.48861 19.1436 8.33473C19.0333 8.18086 18.8735 8.05236 18.6803 7.96206L18.6804 7.96193ZM1.71577 15.7567V1.60244L17.1708 8.82403L1.71577 15.7567Z" fill="#4C4545"/>
</g>
</svg>
