<svg width="25" height="27" viewBox="0 0 25 27" fill="none" xmlns="http://www.w3.org/2000/svg">
<path fill-rule="evenodd" clip-rule="evenodd" d="M15.7581 15.1567L21 21.3814L19.6369 23L14.3951 16.7753C13.4162 17.6118 12.2361 18.1224 10.9463 18.1224C7.66209 18.1224 5 14.9611 5 11.0612C5 7.16124 7.66209 4 10.9463 4C14.2304 4 16.8925 7.16124 16.8925 11.0612C16.8925 12.5929 16.4626 13.9943 15.7581 15.1567ZM10.9463 6.17267C8.66838 6.17267 6.82962 8.3562 6.82962 11.0612C6.82962 13.7662 8.66838 15.9497 10.9463 15.9497C13.2241 15.9497 15.0629 13.7662 15.0629 11.0612C15.0629 8.3562 13.2241 6.17267 10.9463 6.17267Z" fill="white"/>
</svg>
