<svg width="20" height="20" viewBox="0 0 20 20" fill="none" xmlns="http://www.w3.org/2000/svg">
<g id="&#240;&#159;&#166;&#134; icon &#34;search&#34;">
<path id="Vector" d="M19.2848 15.9627L15.9207 12.5986L13.3331 11.5295C14.1947 10.3043 14.6563 8.84257 14.6546 7.34471C14.6546 3.31831 11.3789 0.0426025 7.35249 0.0426025C3.32609 0.0426025 0.0503845 3.31831 0.0503845 7.34471C0.0503845 11.3711 3.32609 14.6468 7.35249 14.6468C8.86338 14.6485 10.3372 14.179 11.5686 13.3035L12.6349 15.8842L15.9989 19.2484C16.2146 19.4642 16.4707 19.6354 16.7526 19.7521C17.0345 19.8689 17.3366 19.929 17.6418 19.929C17.9469 19.929 18.249 19.8689 18.5309 19.7522C18.8128 19.6354 19.0689 19.4643 19.2847 19.2485C19.5005 19.0328 19.6716 18.7767 19.7884 18.4948C19.9052 18.2129 19.9653 17.9108 19.9653 17.6056C19.9653 17.3005 19.9052 16.9984 19.7884 16.7165C19.6717 16.4346 19.5006 16.1785 19.2848 15.9627ZM1.37804 7.34471C1.37804 4.05047 4.05825 1.37026 7.35249 1.37026C10.6467 1.37026 13.3269 4.05047 13.3269 7.34471C13.3269 10.639 10.6467 13.3192 7.35249 13.3192C4.05825 13.3192 1.37804 10.639 1.37804 7.34471ZM18.3459 18.3097C18.1591 18.4961 17.9058 18.6008 17.6418 18.6008C17.3778 18.6008 17.1246 18.4961 16.9377 18.3097L13.7608 15.1327L12.7695 12.7332L15.1691 13.7246L18.346 16.9015C18.5325 17.0884 18.6372 17.3416 18.6372 17.6056C18.6371 17.8696 18.5324 18.1228 18.3459 18.3097Z" fill="#000"/>
</g>
</svg>
